<svg width="56" height="56" viewBox="0 0 56 56" fill="none" xmlns="http://www.w3.org/2000/svg">
<rect x="4" y="4" width="48" height="48" rx="24" fill="#1F4DAD"/>
<rect x="4" y="4" width="48" height="48" rx="24" stroke="#193D8B" stroke-width="8"/>
<path fill-rule="evenodd" clip-rule="evenodd" d="M30.6823 18.7868C28.7265 18.7377 27.2735 18.7377 25.3177 18.7868L25.2429 18.7887C23.7335 18.8265 22.4916 18.8576 21.4906 19.0318C20.4283 19.2165 19.5388 19.5764 18.7854 20.3317C18.0359 21.0831 17.6771 21.9586 17.4953 23.0042C17.3246 23.9854 17.2988 25.1962 17.2676 26.6617L17.266 26.7371C17.2447 27.7351 17.2447 28.265 17.266 29.2629L17.2676 29.3383C17.2988 30.8038 17.3247 32.0146 17.4953 32.9959C17.6771 34.0414 18.0359 34.9169 18.7854 35.6683C19.5388 36.4236 20.4283 36.7835 21.4907 36.9683C22.4916 37.1424 23.7335 37.1735 25.2429 37.2113L25.3177 37.2132C27.2735 37.2623 28.7265 37.2623 30.6823 37.2132L30.7571 37.2113C32.2665 37.1735 33.5084 37.1423 34.5094 36.9682C35.5717 36.7835 36.4612 36.4236 37.2146 35.6683C37.9641 34.9169 38.323 34.0414 38.5047 32.9958C38.6754 32.0146 38.7012 30.8038 38.7324 29.3383L38.734 29.2629C38.7553 28.2649 38.7553 27.7351 38.734 26.7371L38.7324 26.6618C38.7012 25.1963 38.6753 23.9854 38.5047 23.0042C38.3229 21.9586 37.9641 21.0831 37.2146 20.3317C36.7913 19.9073 36.3249 19.6077 35.809 19.3939C35.7305 19.351 35.6464 19.3187 35.5587 19.2981C35.2289 19.1818 34.8796 19.0962 34.5093 19.0318C33.5084 18.8576 32.2665 18.8265 30.7571 18.7887L30.6823 18.7868ZM36.6798 24.8503C36.6604 24.4448 36.6507 24.242 36.5039 24.1611C36.3571 24.0801 36.1765 24.1824 35.8155 24.387L31.5798 26.787C30.2801 27.5234 29.181 28 27.9998 28C26.8186 28 25.7195 27.5234 24.4199 26.787L20.1845 24.3872C19.8234 24.1826 19.6429 24.0804 19.4961 24.1613C19.3492 24.2422 19.3396 24.445 19.3202 24.8505C19.2942 25.397 19.28 26.0306 19.264 26.7797C19.2433 27.7492 19.2433 28.2508 19.264 29.2203C19.2974 30.7803 19.3226 31.8393 19.4643 32.6543C19.5978 33.4218 19.8204 33.8777 20.2012 34.2595C20.5781 34.6374 21.0403 34.8638 21.8335 35.0018C22.6717 35.1476 23.765 35.1776 25.3679 35.2178C27.2902 35.266 28.7098 35.266 30.6321 35.2178C32.235 35.1776 33.3283 35.1476 34.1665 35.0018C34.9597 34.8638 35.4219 34.6374 35.7988 34.2595C36.1796 33.8777 36.4023 33.4218 36.5357 32.6543C36.6774 31.8393 36.7027 30.7803 36.736 29.2203C36.7567 28.2508 36.7567 27.7492 36.736 26.7797C36.72 26.0305 36.7058 25.3969 36.6798 24.8503Z" fill="white"/>
</svg>
