<svg width="56" height="56" viewBox="0 0 56 56" fill="none" xmlns="http://www.w3.org/2000/svg">
<rect x="4" y="4" width="48" height="48" rx="24" fill="#1F4DAD"/>
<rect x="4" y="4" width="48" height="48" rx="24" stroke="#193D8B" stroke-width="8"/>
<path fill-rule="evenodd" clip-rule="evenodd" d="M30.1049 24.253C30.7549 24.6432 31.2502 25.3005 31.2502 26.2109C31.2502 26.5504 31.3166 26.6796 31.3552 26.731C31.3908 26.7783 31.4779 26.8604 31.7528 26.9336C32.4835 27.1282 33.1229 27.4311 33.7409 27.87L35.7624 29.3055C36.5576 29.8698 37.1398 30.2829 37.4616 30.9596C37.7517 31.5696 37.7511 32.2659 37.7503 33.1815L37.7502 33.3798C37.7502 34.2962 37.7502 35.0516 37.6778 35.6517C37.6023 36.2777 37.4379 36.8418 37.0292 37.3096C36.5064 37.9082 35.6662 38.0996 35.0139 38.1789C34.4197 38.2512 33.7871 38.2483 33.3096 38.2461H33.3093H33.309C33.2324 38.2457 33.1597 38.2454 33.0919 38.2454H22.9085C22.8179 38.2454 22.7174 38.2464 22.6098 38.2474C22.1512 38.252 21.5586 38.2578 21.0044 38.1943C20.344 38.1185 19.5091 37.9254 18.9711 37.3096C18.5625 36.8418 18.3981 36.2777 18.3226 35.6517C18.2501 35.0515 18.2502 34.2962 18.2502 33.3797L18.2501 33.1815C18.2493 32.2658 18.2486 31.5697 18.5387 30.9597C18.8605 30.283 19.4427 29.8698 20.2378 29.3055L22.2594 27.87C22.8825 27.4275 23.5226 27.1266 24.2475 26.9336C24.5225 26.8604 24.6096 26.7783 24.6451 26.731C24.6838 26.6796 24.7502 26.5504 24.7502 26.2109C24.7502 25.3339 25.2705 24.7025 25.8882 24.3222C26.4953 23.9484 27.2579 23.7679 27.9829 23.7512C28.7062 23.7345 29.482 23.879 30.1049 24.253ZM25.25 32.4999C25.25 30.9811 26.4812 29.7499 28 29.7499C29.5188 29.7499 30.75 30.9811 30.75 32.4999C30.75 34.0187 29.5188 35.2499 28 35.2499C26.4812 35.2499 25.25 34.0187 25.25 32.4999Z" fill="#EAF0FD"/>
<path d="M22.754 18.4764C26.147 17.5077 29.8525 17.5077 33.2455 18.4764C34.6389 18.8742 35.6547 19.3732 36.5819 19.9755C38.2348 21.0492 38.9047 22.9569 38.7197 24.7327C38.6654 25.2538 38.4144 25.7158 37.9801 25.995C37.5531 26.2696 37.041 26.3085 36.5681 26.177C36.4647 26.1483 36.3604 26.1195 36.2554 26.0905C35.8965 25.9915 35.5297 25.8902 35.1669 25.7826C34.4466 25.5689 33.8469 25.2913 33.4303 24.7628C33.0251 24.2488 32.881 23.6044 32.7853 22.8996L32.4828 20.6712C32.4558 20.4725 32.4423 20.3731 32.3778 20.3036C32.3133 20.234 32.2174 20.2135 32.0255 20.1725C29.3879 19.609 26.6117 19.609 23.9741 20.1725C23.7822 20.2135 23.6862 20.234 23.6217 20.3036C23.5572 20.3731 23.5437 20.4725 23.5167 20.6712L23.2142 22.8996C23.1185 23.6044 22.9745 24.2488 22.5692 24.7628C22.1526 25.2913 21.553 25.5689 20.8327 25.7826C20.4698 25.8902 20.103 25.9914 19.7442 26.0905L19.7429 26.0909C19.6383 26.1197 19.5344 26.1484 19.4315 26.177C18.9586 26.3085 18.4465 26.2696 18.0194 25.995C17.5851 25.7158 17.3342 25.2538 17.2799 24.7327C17.0948 22.9569 17.7647 21.0492 19.4177 19.9755C20.3448 19.3732 21.3606 18.8742 22.754 18.4764Z" fill="#EAF0FD"/>
</svg>
