<svg width="56" height="56" viewBox="0 0 56 56" fill="none" xmlns="http://www.w3.org/2000/svg">
<rect x="4" y="4" width="48" height="48" rx="24" fill="#1F4DAD"/>
<rect x="4" y="4" width="48" height="48" rx="24" stroke="#193D8B" stroke-width="8"/>
<path fill-rule="evenodd" clip-rule="evenodd" d="M28 39.25C33.799 39.25 38.5 34.549 38.5 28.75C38.5 22.951 33.799 18.25 28 18.25C22.201 18.25 17.5 22.951 17.5 28.75C17.5 30.6332 17.9957 32.4005 18.8639 33.9287L17.5 39.25L22.9861 37.9778C24.476 38.7891 26.1842 39.25 28 39.25ZM28 37.6346C32.9068 37.6346 36.8846 33.6568 36.8846 28.75C36.8846 23.8432 32.9068 19.8654 28 19.8654C23.0932 19.8654 19.1154 23.8432 19.1154 28.75C19.1154 30.6445 19.7084 32.4006 20.7189 33.8427L19.9231 36.8269L22.9599 36.0677C24.392 37.0559 26.1284 37.6346 28 37.6346Z" fill="#EAF0FD"/>
<path d="M37 28C37 32.9706 32.9706 37 28 37C26.1041 37 24.3452 36.4138 22.8945 35.4127L19.8182 36.1818L20.6243 33.1588C19.6007 31.698 19 29.9192 19 28C19 23.0294 23.0294 19 28 19C32.9706 19 37 23.0294 37 28Z" fill="#EAF0FD"/>
<path fill-rule="evenodd" clip-rule="evenodd" d="M28 38.5C33.799 38.5 38.5 33.799 38.5 28C38.5 22.201 33.799 17.5 28 17.5C22.201 17.5 17.5 22.201 17.5 28C17.5 29.8832 17.9957 31.6505 18.8639 33.1787L17.5 38.5L22.9861 37.2278C24.476 38.0391 26.1842 38.5 28 38.5ZM28 36.8846C32.9068 36.8846 36.8846 32.9068 36.8846 28C36.8846 23.0932 32.9068 19.1154 28 19.1154C23.0932 19.1154 19.1154 23.0932 19.1154 28C19.1154 29.8945 19.7084 31.6506 20.7189 33.0927L19.9231 36.0769L22.9599 35.3177C24.392 36.3059 26.1284 36.8846 28 36.8846Z" fill="#255CD0"/>
<path d="M25.375 23.125C25.1254 22.6236 24.7424 22.668 24.3555 22.668C23.6641 22.668 22.5859 23.4962 22.5859 25.0376C22.5859 26.3008 23.1426 27.6836 25.0183 29.7522C26.8285 31.7485 29.207 32.7812 31.1817 32.7461C33.1563 32.7109 33.5625 31.0117 33.5625 30.4379C33.5625 30.1835 33.4047 30.0566 33.296 30.0221C32.6231 29.6992 31.382 29.0975 31.0996 28.9844C30.8172 28.8714 30.6698 29.0243 30.5781 29.1075C30.3221 29.3515 29.8144 30.0707 29.6406 30.2325C29.4668 30.3942 29.2077 30.3124 29.0999 30.2512C28.7031 30.092 27.6272 29.6134 26.7696 28.7821C25.709 27.754 25.6467 27.4002 25.4469 27.0854C25.2871 26.8335 25.4044 26.6789 25.4629 26.6114C25.6914 26.3477 26.007 25.9406 26.1485 25.7383C26.29 25.536 26.1776 25.2289 26.1102 25.0376C25.8203 24.2149 25.5747 23.5262 25.375 23.125Z" fill="#255CD0"/>
</svg>
